CD_DA

CATALOG "0602527384146"

// Track 1
TRACK AUDIO
NO COPY
NO PRE_EMPHASIS
TWO_CHANNEL_AUDIO
ISRC "NLA317000053"
FILE "data.wav" 0 02:56:09


// Track 2
TRACK AUDIO
NO COPY
NO PRE_EMPHASIS
TWO_CHANNEL_AUDIO
ISRC "NLA317000054"
FILE "data.wav" 02:56:09 05:11:05


// Track 3
TRACK AUDIO
NO COPY
NO PRE_EMPHASIS
TWO_CHANNEL_AUDIO
ISRC "NLA317000055"
FILE "data.wav" 08:07:14 03:46:08


// Track 4
TRACK AUDIO
NO COPY
NO PRE_EMPHASIS
TWO_CHANNEL_AUDIO
ISRC "NLA317000056"
FILE "data.wav" 11:53:22 03:15:50


// Track 5
TRACK AUDIO
NO COPY
NO PRE_EMPHASIS
TWO_CHANNEL_AUDIO
ISRC "NLA317000057"
FILE "data.wav" 15:08:72 02:52:25


// Track 6
TRACK AUDIO
NO COPY
NO PRE_EMPHASIS
TWO_CHANNEL_AUDIO
ISRC "NLA317000058"
FILE "data.wav" 18:01:22 01:21:10


// Track 7
TRACK AUDIO
NO COPY
NO PRE_EMPHASIS
TWO_CHANNEL_AUDIO
ISRC "NLA317000059"
FILE "data.wav" 19:22:32 04:20:50


// Track 8
TRACK AUDIO
NO COPY
NO PRE_EMPHASIS
TWO_CHANNEL_AUDIO
ISRC "NLA317000060"
FILE "data.wav" 23:43:07 03:26:36


// Track 9
TRACK AUDIO
NO COPY
NO PRE_EMPHASIS
TWO_CHANNEL_AUDIO
ISRC "NLA317000061"
FILE "data.wav" 27:09:43 00:24:62


// Track 10
TRACK AUDIO
NO COPY
NO PRE_EMPHASIS
TWO_CHANNEL_AUDIO
ISRC "NLA317000062"
FILE "data.wav" 27:34:30 08:37:64

